<svg width="15" height="19" viewBox="0 0 15 19" fill="none" xmlns="http://www.w3.org/2000/svg">
<path d="M8 0C7.54 0 7.07 0.0400001 6.6 0.14C3.84 0.67 1.64 2.9 1.12 5.66C0.639995 8.27 1.6 10.67 3.34 12.22C3.77 12.6 4 13.13 4 13.69V16C4 17.1 4.9 18 6 18H6.27999C6.62999 18.6 7.26 19 8 19C8.74 19 9.38 18.6 9.72 18H10C11.1 18 12 17.1 12 16V13.69C12 13.14 12.22 12.6 12.64 12.23C14.09 10.95 15 9.08 15 7C15 3.13 11.87 0 8 0ZM10 16H6V15H10V16ZM10 14H6V13H10V14ZM8.5 8.41V11H7.5V8.41L5.67 6.59L6.38 5.88L8 7.5L9.62 5.88L10.33 6.59L8.5 8.41Z" fill="black"/>
</svg>
